<?xml version="1.0" encoding="UTF-8" standalone="no"?>
<!-- Created with Inkscape (http://www.inkscape.org/) -->

<svg
   width="1.3120646mm"
   height="1.5869833mm"
   viewBox="0 0 1.3120646 1.5869833"
   version="1.1"
   id="svg1"
   xmlns:inkscape="http://www.inkscape.org/namespaces/inkscape"
   xmlns:sodipodi="http://sodipodi.sourceforge.net/DTD/sodipodi-0.dtd"
   xmlns="http://www.w3.org/2000/svg"
   xmlns:svg="http://www.w3.org/2000/svg">
  <sodipodi:namedview
     id="namedview1"
     pagecolor="#ffffff"
     bordercolor="#cccccc"
     borderopacity="1"
     inkscape:showpageshadow="0"
     inkscape:pageopacity="1"
     inkscape:pagecheckerboard="0"
     inkscape:deskcolor="#d1d1d1"
     inkscape:document-units="mm"
     showgrid="true"
     showguides="true">
    <inkscape:grid
       id="grid1"
       units="px"
       originx="-60.303399"
       originy="-63.961986"
       spacingx="0.26458333"
       spacingy="0.26458333"
       empcolor="#005680"
       empopacity="0.30196078"
       color="#8e8e8e"
       opacity="0.14901961"
       empspacing="5"
       dotted="false"
       gridanglex="30"
       gridanglez="30"
       visible="true" />
  </sodipodi:namedview>
  <defs
     id="defs1" />
  <g
     inkscape:label="Capa 1"
     inkscape:groupmode="layer"
     id="layer1"
     transform="translate(-60.3034,-63.961989)">
    <g
       id="g40">
      <path
         style="fill:#000080;fill-opacity:1;stroke:none;stroke-width:0.000167033;stroke-linejoin:bevel;stroke-dasharray:none;stroke-opacity:1;paint-order:markers stroke fill"
         d="m 229.97543,247.69491 c -0.83438,-0.14897 -1.52993,-0.71063 -1.85625,-1.49893 -0.13925,-0.33639 -0.17477,-0.52754 -0.17477,-0.94041 0,-0.4043 0.0326,-0.58664 0.16381,-0.917 0.21778,-0.54823 0.66054,-1.03441 1.1822,-1.29814 0.14456,-0.0731 0.46042,-0.18368 0.58338,-0.20427 0.0862,-0.0144 0.0956,-0.012 0.0827,0.0215 -0.008,0.0208 -0.0255,0.10848 -0.0389,0.19487 -0.0288,0.1853 -0.0109,0.41038 0.0476,0.59807 0.043,0.13805 0.0351,0.16737 -0.045,0.16836 -0.0602,7.3e-4 -0.32435,0.14643 -0.46306,0.25541 -0.52422,0.41185 -0.70243,1.18328 -0.41309,1.7882 0.17983,0.37598 0.45759,0.62701 0.85834,0.77577 0.21342,0.0792 0.61576,0.10043 0.83612,0.0441 0.57246,-0.14639 0.99244,-0.57854 1.11636,-1.14873 0.0467,-0.21472 0.0339,-0.53371 -0.0293,-0.73366 l -0.0427,-0.13509 0.11276,-0.0357 c 0.17704,-0.056 0.38577,-0.1893 0.5474,-0.34951 l 0.14846,-0.14717 0.0698,0.16763 c 0.0585,0.1405 0.10367,0.28478 0.13543,0.43114 0.0865,0.39873 0.0735,0.813 -0.0409,1.20909 -0.30699,1.06231 -1.28591,1.7977 -2.37993,1.788 -0.12298,-0.001 -0.30315,-0.0162 -0.40038,-0.0336 z"
         id="path43"
         transform="scale(0.26458333)"
         sodipodi:nodetypes="cssssssssssssssscsscsssccc"
         inkscape:export-filename="path43.svg"
         inkscape:export-xdpi="96"
         inkscape:export-ydpi="96" />
      <g
         id="g42"
         transform="translate(-1.0231412,0.15200954)">
        <path
           d="m 62.561606,64.433713 a 0.3922511,0.3922511 0 0 1 -0.218074,0.147278 0.3922511,0.3922511 0 0 1 0.03049,0.150895 0.3922511,0.3922511 0 0 1 -0.392224,0.392224 0.3922511,0.3922511 0 0 1 -0.392224,-0.392224 0.3922511,0.3922511 0 0 1 0.295072,-0.378788 0.3922511,0.3922511 0 0 1 -5.17e-4,-5.17e-4 0.3922511,0.3922511 0 0 1 -0.02997,-0.149862 0.3922511,0.3922511 0 0 1 0.01912,-0.113688 0.65475154,0.65891159 0 0 0 -0.546736,0.649056 0.65475154,0.65891159 0 0 0 0.65474,0.658875 0.65475154,0.65891159 0 0 0 0.464571,-0.194821 0.3922511,0.3922511 0 0 1 -0.05839,-0.203088 0.3922511,0.3922511 0 0 1 0.240812,-0.361218 0.65475154,0.65891159 0 0 0 -0.06666,-0.204122 z"
           style="fill:currentColor;fill-opacity:1;stroke:none;stroke-width:0.0102132;stroke-linejoin:bevel;paint-order:markers stroke fill"
           id="path35" />
        <path
           d="m 62.628269,64.637835 a 0.3922511,0.3922511 0 0 0 -0.240812,0.361218 0.3922511,0.3922511 0 0 0 0.05839,0.203088 0.65475154,0.65891159 0 0 0 0.190169,-0.464054 0.65475154,0.65891159 0 0 0 -0.0078,-0.100252 z"
           style="fill:currentColor;fill-opacity:1;stroke:none;stroke-width:0.00609923;stroke-linejoin:bevel;paint-order:markers stroke fill"
           id="path36" />
        <path
           d="m 62.24638,63.809978 a 0.3922511,0.3922511 0 0 0 -0.373104,0.279053 0.65475154,0.65891159 0 0 1 0.108004,-0.0098 0.65475154,0.65891159 0 0 1 0.580326,0.3545 0.3922511,0.3922511 0 0 0 0.077,-0.230994 0.3922511,0.3922511 0 0 0 -0.392224,-0.392741 z"
           style="fill:currentColor;fill-opacity:1;stroke:none;stroke-width:0.00609923;stroke-linejoin:bevel;paint-order:markers stroke fill"
           id="path40" />
        <path
           d="m 62.343532,64.580991 a 0.3922511,0.3922511 0 0 0 -0.361735,-0.241329 0.3922511,0.3922511 0 0 0 -0.09715,0.01344 0.3922511,0.3922511 0 0 0 0.07596,0.116788 0.26171923,0.26171923 0 0 1 0.01964,-0.0026 0.26171923,0.26171923 0 0 1 0.221692,0.122989 0.3922511,0.3922511 0 0 0 0.04444,0.0047 0.3922511,0.3922511 0 0 0 0.09715,-0.01395 z"
           style="fill:currentColor;fill-opacity:1;stroke:none;stroke-width:0.00609923;stroke-linejoin:bevel;paint-order:markers stroke fill"
           id="path37" />
        <path
           d="m 62.201938,64.590292 a 0.26171923,0.26171923 0 0 0 -0.221692,-0.122989 0.26171923,0.26171923 0 0 0 -0.01964,0.0026 0.3922511,0.3922511 0 0 0 0.241329,0.120406 z"
           style="fill:currentColor;fill-opacity:1;stroke:none;stroke-width:0.00406955;stroke-linejoin:bevel;paint-order:markers stroke fill"
           id="path39" />
        <path
           d="m 62.201938,64.590292 a 0.3922511,0.3922511 0 0 1 -0.241329,-0.120406 0.26171923,0.26171923 0 0 0 -0.241845,0.258899 0.26171923,0.26171923 0 0 0 0.261482,0.262 0.26171923,0.26171923 0 0 0 0.262,-0.262 0.26171923,0.26171923 0 0 0 -0.04031,-0.138493 z"
           style="fill:currentColor;fill-opacity:1;stroke:none;stroke-width:0.00406955;stroke-linejoin:bevel;paint-order:markers stroke fill"
           id="path38" />
        <path
           style="fill:currentColor;fill-opacity:1;stroke:none;stroke-width:0.002;stroke-linejoin:bevel;stroke-dasharray:none;stroke-opacity:1;paint-order:markers stroke fill"
           d="m 61.960042,64.470483 -0.0062,0.08888 0.124023,0.05891 0.08682,0.0062 0.03617,-0.03617 0.03617,-0.03928 -0.133323,-0.07131 -0.115756,-0.05374 z"
           id="path41" />
        <path
           style="fill:currentColor;fill-opacity:1;stroke:none;stroke-width:0.002;stroke-linejoin:bevel;stroke-dasharray:none;stroke-opacity:1;paint-order:markers stroke fill"
           d="m 62.624601,64.623444 0.0083,0.04237 -0.191203,0.251148 0.0052,0.211873 0.01344,0.04961 -0.0031,0.01241 -0.0217,0.01963 -0.09095,-0.174665 0.04961,-0.204639 0.129191,-0.165365 0.07235,-0.03514 z"
           id="path42" />
      </g>
    </g>
  </g>
</svg>
